<svg xmlns="http://www.w3.org/2000/svg" viewBox="0 0 480 360" fill="none" stroke="currentColor" stroke-width="1"><path stroke="currentColor" stroke-linecap="round" stroke-linejoin="round" d="m240.088 214.66-60.044 34.67 60.044 34.661 60.044-34.661-60.044-34.67Zm.001 0 60.045 34.67V180l-60.045-34.67v69.33Z"></path> <path stroke="currentColor" stroke-linecap="round" stroke-linejoin="round" d="M240.089 145.33 300.134 180v-.009L240.089 76v69.33ZM300.132 180v-.009.009ZM120 283.999l.009-.008-.009.008ZM300.132 180v69.33l60.045 34.669L300.132 180Z"></path> <path stroke="currentColor" stroke-linecap="round" stroke-linejoin="round" d="m300.134 249.33-60.045 34.661.009.008h120.08l-60.044-34.669Zm-120.09 0V180l-60.035 103.99 60.035-34.66Zm60.045 34.669h.009l-.009-.008v.008Zm-60.045-34.669 60.044-34.67v-69.33L180.044 180v69.33Zm60.044-104V76l-60.044 104 60.044-34.67Z"></path> <path stroke="currentColor" stroke-linecap="round" stroke-linejoin="round" d="m180.044 249.33-60.035 34.661-.009.008h120.089v-.008l-60.045-34.661Z"></path></svg>
